# xmcd
#
# Track frame offsets:
#	150
#	12247
#	26760
#	49110
#	62130
#	84557
#	98007
#	115587
#	128922
#	145287
#	156505
#	173967
#	193767
#	211012
#	221755
#	237545
#	260215
#	289195
#	305792
#	321577
#
# Disc length: 4511 seconds
#
# Revision: 8
# Processed by: cddbd v1.5.2PL0 Copyright (c) Steve Scherf et al.
# Submitted via: audiograbber 1.83.01
#
DISCID=39119d14
DTITLE=Gram Parsons - GP/Grievous Angel
DYEAR=1974
DGENRE=Country Rock
TTITLE0=Still Feeling Blue
TTITLE1=We'll Sweep Out The Ashes In The Morning
TTITLE2=A Song For You
TTITLE3=Streets Of Baltimore
TTITLE4=She
TTITLE5=That's All It Took
TTITLE6=The New Soft Shoe
TTITLE7=Kiss The Children
TTITLE8=Cry One More Time
TTITLE9=How Much I've Lied
TTITLE10=Big Mouth Blues
TTITLE11=Return Of The Grievous Angel
TTITLE12=Hearts On Fire
TTITLE13=I Can't Dance
TTITLE14=Brass Buttons
TTITLE15=$1000 Wedding
TTITLE16=Medley:  a) Cash On The Barrelhead  b) Hickory Wind (live)
TTITLE17=Love Hurts
TTITLE18=Ooh Las Vegas
TTITLE19=In My Hour Of Darkness
EXTD=
EXTT0=
EXTT1=
EXTT2=
EXTT3=
EXTT4=
EXTT5=
EXTT6=
EXTT7=
EXTT8=
EXTT9=
EXTT10=
EXTT11=
EXTT12=
EXTT13=
EXTT14=
EXTT15=
EXTT16=
EXTT17=
EXTT18=
EXTT19=
PLAYORDER=
